<svg xmlns="http://www.w3.org/2000/svg" viewBox="0 0 160 173" xml:space="preserve"><path d="M0 0h159.3v173H0z" fill="#fff"/><path d="m92.7 106.4 21.6 23.7-8.1 5.9c-3.8-6.6-7.5-12.9-11.1-19.1-1.3-2.2-2.5-4.4-3.9-6.5-.5-.8-1.8-1.1-2.7-1.6l-.8.9 20.8 52.4-9.5 3.3c-1.6-6.1-3.2-12-4.7-17.8-3-11.2-5.9-22.4-8.9-33.5-.3-1.1-1.3-2-2-3-.4 1.2-1.2 2.5-1.1 3.6.9 9.1 2 18.3 3 27.7h-9.8c1-10.4 2-20.5 3-30.7l-1.3-.7c-.7 1.1-1.8 2.1-2.2 3.3-4 15.6-8 31.4-12 47.1-.3 1.1-.7 2.3-1.1 3.9l-9.5-2.9 20.1-52.1-1.3-1c-1 .9-2.3 1.7-2.9 2.8-4.6 7.9-9.1 15.9-13.7 24.1l-8.2-5.9 20.6-23c-1.6-2.9-2.9-1.3-4.4-.1-13.3 11.1-26.7 22.2-40.3 33.5l-6-8c3.2-2.1 6.2-4.1 9.3-6.1 11.5-7.5 23.1-14.9 34.5-22.4.9-.6 1.4-1.9 2.1-2.8-1.2 0-2.6-.4-3.6 0-8.3 3.6-16.5 7.4-25.1 11.3-1-3.1-2-6-3.2-9.5 7.4-1.6 14.7-3.2 21.9-4.7 2-.3 3.9-.8 5.8-1.4.9-.3 1.5-1.5 2.3-2.3l-.7-.9-54.8 3.5v-10l54.5 3c1.4-2.5.2-3-1.9-3.4-9-1.8-18-3.7-27.2-5.7l3.1-9.5c8.6 3.8 16.8 7.5 25.1 11 1 .4 2.5 0 3.7 0l.2-1.4L16 52.1l5.7-8.2c8.4 6.8 16.7 13.5 25 20.2 5.3 4.3 10.5 8.6 15.9 12.8.8.6 2.2.4 3.3.6l.2-1.1L46 54.1l8.1-6 15.2 25.8c2.5-1 2.5-1 1.5-3.7-5.7-14.3-11.3-28.7-17-43-.6-1.6-1.2-3.2-2-5.2l9.4-3.2L75 70l.5-.1V.6h9.6c-.4 36-.9 32-1.3 68l.5.2c.4-1 .8-1.9 1.1-3 4-14.6 8.1-29.2 11.9-43.9.8-3 1.8-3.4 4.4-2.2 2 .8 4 1.4 6.1 1.9-3.4 8.8-6.6 17.4-9.9 26-3 7.8-6.1 15.6-9 23.4-.3.9.1 2.1.1 3.1.9-.6 2-1 2.5-1.8 4.7-8 9.3-16.1 14.2-24.6l8.2 5.9c-6 6.8-11.9 13.4-17.7 20-.7.6-1.3 1.3-1.9 2.1-.3.8-.4 1.6-.4 2.4.8-.2 1.8-.1 2.4-.5 4.5-3.6 8.9-7.3 13.3-10.9C119 59 128.4 51.2 138 43.3l6 8c-6.4 4.2-12.6 8.2-18.8 12.3-8.6 5.6-17.2 11.1-25.8 16.8-1 .6-1.5 1.9-2.3 2.8l1 1 28.7-12.8 3.2 9.3c-3.6.9-7 1.7-10.4 2.5-6 1.4-12 2.6-17.9 4-1 .4-2 1-2.8 1.7l.6 1.3 55.8-3.4v10l-55.8-3-.6 1.3c1.2.6 2.3 1.6 3.5 1.9 7.9 1.7 15.9 3.3 23.8 5 1.2.2 2.3.6 3.9 1.1l-2.9 9.2c-10-4.1-19.7-8.1-29.4-12.1-.2-.1-.6.5-1.6 1.3l48.2 30.6-5.7 8.2c-6.4-5.1-12.6-10.1-18.7-15.1-7.7-6.2-15.3-12.5-23-18.7-1-.6-2.1-1.1-3.3-1.4l-1 1.3z" fill="#5c5c5c"/></svg>