<svg xmlns="http://www.w3.org/2000/svg" viewBox="0 0 160 173" xml:space="preserve"><path d="M0 0h159.3v173H0z" fill="#fff"/><path d="M61.1 30.7c7.9-2.1 15.8-3.5 23.9-2.4 3.8.5 7.6 1.2 11.4 1.9 1.5.3 2.1.8 2 2.7-.5 5.8 2.5 11.3 7.5 14 5.4 3.2 11 2.9 16.3-.5 1.1-.7 1.7-.9 2.7.1 8.4 8.2 14.4 18.6 17.3 30 .4 1.4-.4 1.7-1.3 2.2-9.7 5.2-11.6 17.5-3.7 25 1.2 1.1 2.8 1.8 4 2.8.6.5.9 1.2 1 1.9-2.8 11.5-8.9 21.9-17.4 30.1-.6.4-1.4.5-2.1.3-5.4-3.5-11.1-4-16.7-.7-5.5 3.3-8 8.4-7.7 14.9-.1.7-.7 1.3-1.3 1.6-6.8 2-14 2.8-21.1 2.3-4.2-.4-8.3-1.3-12.5-2-.8-.2-1.7-.5-2.5-.8.6-5.6-.8-10.4-4.9-14.1-5.2-4.9-13-5.4-18.9-1.4-1.3.9-1.9.7-2.8-.3-8.1-8.1-14-18.2-16.9-29.2-.4-1.6-.1-2.2 1.3-2.9 7.5-3.8 10.6-12.9 6.8-20.5-.9-1.7-2-3.2-3.4-4.5-1.1-1.1-2.7-1.7-3.9-2.7-.6-.5-.9-1.1-.9-1.9 2.8-11.4 8.8-21.8 17.2-30 .7-.7 1.2-1.2 2.3-.4 5.3 3.7 11 4.1 16.6.8 5.7-3.4 8.2-8.6 7.6-15.3 0-.4 0-.7.1-1zm18.7 38.8c6.8.1 12.4-5.4 12.5-12.2v-.4c0-6.9-5.7-12.5-12.6-12.5-6.9 0-12.5 5.7-12.5 12.6 0 7 5.6 12.5 12.6 12.5zm12.5 58.6c0-6.9-5.7-12.5-12.6-12.5-6.9 0-12.5 5.7-12.5 12.6 0 6.9 5.6 12.5 12.5 12.5s12.5-5.5 12.6-12.4v-.2zM36.4 110c0 7.1 5.6 13 12.4 13 6.9-.1 12.5-5.6 12.7-12.5.1-6.9-5.4-12.7-12.3-12.8-6.9-.2-12.6 5.3-12.8 12.3zm12.9-22.7c7.3-.2 12.5-5.8 12.3-13.3-.2-6.5-6.4-12.2-13.1-12-6.9.2-12.2 6.3-12 13.6.1 6.5 6.1 11.9 12.8 11.7zm61.2 0c6.8.1 12.4-5.4 12.5-12.2v-.3c0-6.9-5.6-12.6-12.5-12.6s-12.6 5.6-12.6 12.5c-.1 6.9 5.5 12.6 12.4 12.6h.2zm12.5 22.9c0-6.9-5.7-12.6-12.6-12.5-6.8 0-12.4 5.5-12.5 12.3 0 7.1 5.6 12.9 12.7 13 6.7 0 12.4-5.9 12.4-12.8zM92.3 92.5c0-6.9-5.6-12.5-12.5-12.5s-12.5 5.6-12.5 12.5S72.9 105 79.8 105c6.8.1 12.4-5.5 12.5-12.5 0 .1 0 .1 0 0z" fill="#5c5c5c"/></svg>