<?xml version="1.0" encoding="utf-8"?>
<!-- Generator: Adobe Illustrator 25.2.1, SVG Export Plug-In . SVG Version: 6.00 Build 0)  -->
<svg version="1.1" id="Layer_3" xmlns="http://www.w3.org/2000/svg" xmlns:xlink="http://www.w3.org/1999/xlink" x="0px" y="0px"
	 viewBox="0 0 160 173" style="enable-background:new 0 0 160 173;" xml:space="preserve">
<style type="text/css">
	.st0{fill:#fff;}
	.st1{fill:#5C5C5C;}
</style>
<rect class="st0" width="159.3" height="173"/>
<path id="Path_35" class="st1" d="M92.7,106.4l21.6,23.7l-8.1,5.9c-3.8-6.6-7.5-12.9-11.1-19.1c-1.3-2.2-2.5-4.4-3.9-6.5
	c-0.5-0.8-1.8-1.1-2.7-1.6l-0.8,0.9l20.8,52.4l-9.5,3.3c-1.6-6.1-3.2-12-4.7-17.8c-3-11.2-5.9-22.4-8.9-33.5c-0.3-1.1-1.3-2-2-3
	c-0.4,1.2-1.2,2.5-1.1,3.6c0.9,9.1,2,18.3,3,27.7h-9.8c1-10.4,2-20.5,3-30.7l-1.3-0.7c-0.7,1.1-1.8,2.1-2.2,3.3
	C71,129.9,67,145.7,63,161.4c-0.3,1.1-0.7,2.3-1.1,3.9l-9.5-2.9l20.1-52.1l-1.3-1c-1,0.9-2.3,1.7-2.9,2.8
	c-4.6,7.9-9.1,15.9-13.7,24.1l-8.2-5.9L67,107.3c-1.6-2.9-2.9-1.3-4.4-0.1c-13.3,11.1-26.7,22.2-40.3,33.5l-6-8
	c3.2-2.1,6.2-4.1,9.3-6.1c11.5-7.5,23.1-14.9,34.5-22.4c0.9-0.6,1.4-1.9,2.1-2.8c-1.2,0-2.6-0.4-3.6,0c-8.3,3.6-16.5,7.4-25.1,11.3
	c-1-3.1-2-6-3.2-9.5c7.4-1.6,14.7-3.2,21.9-4.7c2-0.3,3.9-0.8,5.8-1.4c0.9-0.3,1.5-1.5,2.3-2.3l-0.7-0.9L4.8,97.4v-10l54.5,3
	c1.4-2.5,0.2-3-1.9-3.4c-9-1.8-18-3.7-27.2-5.7l3.1-9.5c8.6,3.8,16.8,7.5,25.1,11c1,0.4,2.5,0,3.7,0l0.2-1.4L16,52.1l5.7-8.2
	c8.4,6.8,16.7,13.5,25,20.2c5.3,4.3,10.5,8.6,15.9,12.8c0.8,0.6,2.2,0.4,3.3,0.6l0.2-1.1L46,54.1l8.1-6l15.2,25.8
	c2.5-1,2.5-1,1.5-3.7c-5.7-14.3-11.3-28.7-17-43c-0.6-1.6-1.2-3.2-2-5.2l9.4-3.2L75,70l0.5-0.1V0.6h9.6c-0.4,36-0.9,32-1.3,68
	l0.5,0.2c0.4-1,0.8-1.9,1.1-3c4-14.6,8.1-29.2,11.9-43.9c0.8-3,1.8-3.4,4.4-2.2c2,0.8,4,1.4,6.1,1.9c-3.4,8.8-6.6,17.4-9.9,26
	c-3,7.8-6.1,15.6-9,23.4c-0.3,0.9,0.1,2.1,0.1,3.1c0.9-0.6,2-1,2.5-1.8c4.7-8,9.3-16.1,14.2-24.6l8.2,5.9c-6,6.8-11.9,13.4-17.7,20
	c-0.7,0.6-1.3,1.3-1.9,2.1c-0.3,0.8-0.4,1.6-0.4,2.4c0.8-0.2,1.8-0.1,2.4-0.5c4.5-3.6,8.9-7.3,13.3-10.9C119,59,128.4,51.2,138,43.3
	l6,8c-6.4,4.2-12.6,8.2-18.8,12.3c-8.6,5.6-17.2,11.1-25.8,16.8c-1,0.6-1.5,1.9-2.3,2.8l1,1l28.7-12.8l3.2,9.3
	c-3.6,0.9-7,1.7-10.4,2.5c-6,1.4-12,2.6-17.9,4c-1,0.4-2,1-2.8,1.7l0.6,1.3l55.8-3.4v10l-55.8-3l-0.6,1.3c1.2,0.6,2.3,1.6,3.5,1.9
	c7.9,1.7,15.9,3.3,23.8,5c1.2,0.2,2.3,0.6,3.9,1.1l-2.9,9.2c-10-4.1-19.7-8.1-29.4-12.1c-0.2-0.1-0.6,0.5-1.6,1.3l48.2,30.6
	l-5.7,8.2c-6.4-5.1-12.6-10.1-18.7-15.1c-7.7-6.2-15.3-12.5-23-18.7c-1-0.6-2.1-1.1-3.3-1.4L92.7,106.4z"/>
</svg>
