<svg xmlns="http://www.w3.org/2000/svg" viewBox="0 0 862.6 453.9"><path fill="#fff" stroke="#11384d" stroke-width="2.835" d="M0 0h862.6v453.9H0z"/><path fill="#e0162b" d="M0 0h862.6v34.9H0zm0 69.8h862.6v34.9H0zm0 69.8h862.6v34.9H0zm0 69.9h862.6v34.9H0zm0 69.8h862.6v34.9H0zm0 69.9h862.6v34.9H0zM0 419h862.6v34.9H0z"/><path fill="#0052a5" d="M0 0h345v244.4H0z"/><path fill="#fff" d="m324.5 35.7-8.2-6-8.3 6 3.2-9.6-8.2-6h10.1l3.2-9.7 3.1 9.7h10.2l-8.3 6zm0 48.9-8.2-6-8.3 6 3.2-9.6-8.2-6h10.1l3.2-9.7 3.1 9.7h10.2l-8.3 6zm0 48.9-8.2-6-8.3 6 3.2-9.6-8.2-6h10.1l3.2-9.7 3.1 9.7h10.2l-8.3 6zm0 48.9-8.2-6-8.3 6 3.2-9.7-8.2-5.9h10.1l3.2-9.7 3.1 9.7h10.2l-8.3 5.9zm0 48.9-8.2-6-8.3 6 3.2-9.7-8.2-5.9h10.1l3.2-9.7 3.1 9.7h10.2l-8.3 5.9zM295.7 60.2l-8.2-6-8.2 6 3.1-9.7-8.2-6h10.2l3.1-9.6 3.2 9.6h10.1l-8.2 6zm0 48.9-8.2-6-8.2 6 3.1-9.7-8.2-6h10.2l3.1-9.6 3.2 9.6h10.1l-8.2 6zm0 48.9-8.2-6-8.2 6 3.1-9.7-8.2-6h10.2l3.1-9.6 3.2 9.6h10.1l-8.2 6zm0 48.8-8.2-5.9-8.2 5.9 3.1-9.6-8.2-6h10.2l3.1-9.7 3.2 9.7h10.1l-8.2 6zM267 35.7l-8.2-6-8.3 6 3.2-9.6-8.2-6h10.1l3.2-9.7 3.1 9.7h10.2l-8.3 6zm0 48.9-8.2-6-8.3 6 3.2-9.6-8.2-6h10.1l3.2-9.7 3.1 9.7h10.2l-8.3 6zm0 48.9-8.2-6-8.3 6 3.2-9.6-8.2-6h10.1l3.2-9.7 3.1 9.7h10.2l-8.3 6zm0 48.9-8.2-6-8.3 6 3.2-9.7-8.2-5.9h10.1l3.2-9.7 3.1 9.7h10.2l-8.3 5.9zm0 48.9-8.2-6-8.3 6 3.2-9.7-8.2-5.9h10.1l3.2-9.7 3.1 9.7h10.2l-8.3 5.9zM238.2 60.2l-8.2-6-8.2 6 3.1-9.7-8.2-6h10.2l3.1-9.6 3.1 9.6h10.2l-8.2 6zm0 48.9-8.2-6-8.2 6 3.1-9.7-8.2-6h10.2l3.1-9.6 3.1 9.6h10.2l-8.2 6zm0 48.9-8.2-6-8.2 6 3.1-9.7-8.2-6h10.2l3.1-9.6 3.1 9.6h10.2l-8.2 6zm0 48.8-8.2-5.9-8.2 5.9 3.1-9.6-8.2-6h10.2l3.1-9.7 3.1 9.7h10.2l-8.2 6zM209.5 35.7l-8.3-6-8.2 6 3.2-9.6-8.3-6h10.2l3.1-9.7 3.2 9.7h10.1l-8.2 6zm0 48.9-8.3-6-8.2 6 3.2-9.6-8.3-6h10.2l3.1-9.7 3.2 9.7h10.1l-8.2 6zm0 48.9-8.3-6-8.2 6 3.2-9.6-8.3-6h10.2l3.1-9.7 3.2 9.7h10.1l-8.2 6zm0 48.9-8.3-6-8.2 6 3.2-9.7-8.3-5.9h10.2l3.1-9.7 3.2 9.7h10.1l-8.2 5.9zm0 48.9-8.3-6-8.2 6 3.2-9.7-8.3-5.9h10.2l3.1-9.7 3.2 9.7h10.1l-8.2 5.9zM180.7 60.2l-8.2-6-8.2 6 3.1-9.7-8.2-6h10.2l3.1-9.6 3.1 9.6h10.2l-8.2 6zm0 48.9-8.2-6-8.2 6 3.1-9.7-8.2-6h10.2l3.1-9.6 3.1 9.6h10.2l-8.2 6zm0 48.9-8.2-6-8.2 6 3.1-9.7-8.2-6h10.2l3.1-9.6 3.1 9.6h10.2l-8.2 6zm0 48.8-8.2-5.9-8.2 5.9 3.1-9.6-8.2-6h10.2l3.1-9.7 3.1 9.7h10.2l-8.2 6zM152 35.7l-8.3-6-8.2 6 3.2-9.6-8.3-6h10.2l3.1-9.7 3.2 9.7H157l-8.2 6zm0 48.9-8.3-6-8.2 6 3.2-9.6-8.3-6h10.2l3.1-9.7 3.2 9.7H157l-8.2 6zm0 48.9-8.3-6-8.2 6 3.2-9.6-8.3-6h10.2l3.1-9.7 3.2 9.7H157l-8.2 6zm0 48.9-8.3-6-8.2 6 3.2-9.7-8.3-5.9h10.2l3.1-9.7 3.2 9.7H157l-8.2 5.9zm0 48.9-8.3-6-8.2 6 3.2-9.7-8.3-5.9h10.2l3.1-9.7 3.2 9.7H157l-8.2 5.9zM123.2 60.2l-8.2-6-8.2 6 3.1-9.7-8.2-6h10.2l3.1-9.6 3.1 9.6h10.2l-8.2 6zm0 48.9-8.2-6-8.2 6 3.1-9.7-8.2-6h10.2l3.1-9.6 3.1 9.6h10.2l-8.2 6zm0 48.9-8.2-6-8.2 6 3.1-9.7-8.2-6h10.2l3.1-9.6 3.1 9.6h10.2l-8.2 6zm0 48.8-8.2-5.9-8.2 5.9 3.1-9.6-8.2-6h10.2l3.1-9.7 3.1 9.7h10.2l-8.2 6zM94.5 35.7l-8.3-6-8.2 6 3.2-9.6-8.3-6h10.2l3.1-9.7 3.2 9.7h10.1l-8.2 6zm0 48.9-8.3-6-8.2 6 3.2-9.6-8.3-6h10.2l3.1-9.7 3.2 9.7h10.1l-8.2 6zm0 48.9-8.3-6-8.2 6 3.2-9.6-8.3-6h10.2l3.1-9.7 3.2 9.7h10.1l-8.2 6zm0 48.9-8.3-6-8.2 6 3.2-9.7-8.3-5.9h10.2l3.1-9.7 3.2 9.7h10.1l-8.2 5.9zm0 48.9-8.3-6-8.2 6 3.2-9.7-8.3-5.9h10.2l3.1-9.7 3.2 9.7h10.1l-8.2 5.9zM65.7 60.2l-8.2-6-8.2 6 3.1-9.7-8.2-6h10.1l3.2-9.6 3.1 9.6h10.2l-8.2 6zm0 48.9-8.2-6-8.2 6 3.1-9.7-8.2-6h10.1l3.2-9.6 3.1 9.6h10.2l-8.2 6zm0 48.9-8.2-6-8.2 6 3.1-9.7-8.2-6h10.1l3.2-9.6 3.1 9.6h10.2l-8.2 6zm0 48.8-8.2-5.9-8.2 5.9 3.1-9.6-8.2-6h10.1l3.2-9.7 3.1 9.7h10.2l-8.2 6zM36.9 35.7l-8.2-6-8.2 6 3.2-9.6-8.3-6h10.2l3.1-9.7 3.2 9.7H42l-8.2 6zm0 48.9-8.2-6-8.2 6 3.2-9.6-8.3-6h10.2l3.1-9.7 3.2 9.7H42l-8.2 6zm0 48.9-8.2-6-8.2 6 3.2-9.6-8.3-6h10.2l3.1-9.7 3.2 9.7H42l-8.2 6zm0 48.9-8.2-6-8.2 6 3.2-9.7-8.3-5.9h10.2l3.1-9.7 3.2 9.7H42l-8.2 5.9zm0 48.9-8.2-6-8.2 6 3.2-9.7-8.3-5.9h10.2l3.1-9.7 3.2 9.7H42l-8.2 5.9z"/></svg>