<svg xmlns="http://www.w3.org/2000/svg" xml:space="preserve" viewBox="0 0 160 173"><path fill="#fff" d="M0 0h159.3v173H0z"/><path fill="#5c5c5c" d="M142.146 82.994h-24.6l-4.5-11 17.6-17.2c5.8 5.2 11.6 18.9 11.5 28.2zm-99.6-22.6 16.9 16.7-4.6 11.1h-23.5c-.9-7.7 5.1-22.3 11.2-27.8zm74.7 63.4-17.3-17.2 4.5-10.7h24.3c-.7 10.2-4.7 20-11.5 27.9zm-33.5 17.2v-24.3l10.6-4.5 17.1 17.3c-7.7 6.7-17.4 10.7-27.7 11.5zm-52.8-45.3h24l4.4 10.6-17.1 17.1c-6.7-7.8-10.6-17.5-11.3-27.7zm80.7-41.3c-5.5 5.7-10.8 11.2-16.3 16.6-.6.4-1.3.5-2 .3-3.2-1.4-6.2-2.9-9.6-4.5v-23.9c10.3.8 20 4.8 27.9 11.5zm-63.7.2c7.9-6.8 17.7-10.9 28-11.7.1 1 .2 1.8.2 2.7v19.5c0 1.6-.4 2.5-2.1 3-2.5.8-4.9 2-7.4 2.9-.9.3-1.9.3-2.7-.2-5.3-5.3-10.5-10.7-16-16.2zm17.6 57.9c2.8 1.1 5.8 2.2 8.8 3.5.7.3 1.7 1 1.7 1.5.1 7.8.1 15.5.1 23.4-10.2-.7-19.9-4.6-27.6-11.3l17-17.1zm-65.3-25.7h22.9v10.1H.246v-10.1zm136.2 0h22.9v10.1h-22.9v-10.1zm-61.5-74.4h9.9v23h-9.9v-23zm0 136.8h9.9v23h-9.9v-23zm9.4-57c-.2 2.5-2.3 4.4-4.8 4.2-2.5-.2-4.3-2.4-4.2-4.9.3-2.5 2.4-4.3 4.9-4.3 2.4.4 4.3 2.5 4.1 5z"/></svg>