<svg width="500" height="500" xmlns="http://www.w3.org/2000/svg"><path fill-opacity=".6" d="M0 0h500v500H0z"/><g fill-opacity=".3"><path d="M143.432 245v-44.689h-11.524V245zM210.252 245v-44.689h-16.013l-9.313 24.656-9.38-24.656h-16.013V245h11.524v-29.547L182.38 245h5.092l11.256-29.547V245zM269.702 245l-16.817-44.689h-14.539L221.529 245h13.065l2.211-6.432h17.621l2.211 6.432zm-18.425-16.482h-11.323l5.695-16.817zM300.822 245.8c8.442 0 15.008-3.417 19.765-8.71v-17.755h-21.574v10.117h10.05v3.484c-1.608 1.34-4.958 2.68-8.241 2.68-7.303 0-12.462-5.628-12.462-12.931 0-7.37 5.159-12.931 12.462-12.931 4.355 0 7.772 2.747 9.447 5.695l9.648-5.025c-3.082-5.561-9.112-10.854-19.095-10.854-13.333 0-24.187 8.911-24.187 23.115s10.854 23.115 24.187 23.115zM368.092 245v-10.05h-21.239v-7.571h20.77v-10.05h-20.77v-6.968h21.239v-10.05h-32.763V245z"/></g><g fill-opacity=".3"><path d="M132.362 290v-11.12h5.12c4.6 0 7-3.6 7-7.76 0-4.2-2.36-7.8-7-7.8h-7.36V290zm4.96-13.12h-4.96v-11.56h4.96c3.04 0 4.84 2.4 4.84 5.76 0 3.4-1.8 5.8-4.84 5.8zM163.792 290v-2h-9.96v-24.68h-2.24V290zM187.202 290l-8.04-26.68h-2.68l-8.04 26.68h2.44l1.92-6.6h10.04l1.92 6.6zm-4.84-8.6h-9.08l4.56-15.48zM201.952 290.48c3.68 0 5.92-2.2 7.44-5.08l-1.88-.96c-1.12 2.32-2.96 4-5.56 4-4.6 0-7.6-5-7.6-11.76 0-6.8 3-11.76 7.6-11.76 2.48 0 4.32 1.4 5.52 3.6l1.88-.96c-1.52-2.6-3.76-4.68-7.4-4.68-6.12 0-9.96 5.84-9.96 13.8s3.84 13.8 9.96 13.8zM229.852 290v-2h-10.8v-10.68h10.52v-2h-10.52v-10h10.8v-2h-13.04V290zM254.332 290v-26.68h-2.24v11.96h-11.92v-11.96h-2.24V290h2.24v-12.72h11.92V290zM272.152 290.48c6.28 0 9.72-6.16 9.72-13.8s-3.44-13.8-9.72-13.8-9.68 6.16-9.68 13.8 3.4 13.8 9.68 13.8zm0-2.04c-4.76 0-7.32-5.24-7.32-11.76 0-6.56 2.56-11.76 7.32-11.76s7.36 5.2 7.36 11.76c0 6.52-2.6 11.76-7.36 11.76zM301.872 290v-2h-9.96v-24.68h-2.24V290zM315.522 290c6.76 0 10.4-5.72 10.4-13.32 0-7.52-3.64-13.36-10.4-13.36h-6.48V290zm0-2h-4.24v-22.68h4.24c5.36 0 8.04 5 8.04 11.36 0 6.4-2.68 11.32-8.04 11.32zM347.112 290v-2h-10.8v-10.68h10.52v-2h-10.52v-10h10.8v-2h-13.04V290zM369.882 290l-5.92-11.4c2.84-.36 5.64-2.72 5.64-7.52 0-4.88-3-7.76-7-7.76h-7.4V290h2.24v-11.12h4.28l5.56 11.12zm-7.48-13.12h-4.96v-11.56h4.96c3.04 0 4.84 2.4 4.84 5.76 0 3.4-1.8 5.8-4.84 5.8z"/></g></svg>
