<svg xmlns="http://www.w3.org/2000/svg" viewBox="0 0 51.868 51.9"><path d="m32.268.6-4.2 11.1s12.2 1.3 12.8 14.1c0 0 .7 13-14 15.2l-4.5 10.6c1.2.2 2.5.3 3.8.3 16.3 0 25.7-13.3 25.7-26.9 0-13.7-11.3-22.6-19.6-24.4m-19.7 30.8s-4.5-11.6 7.1-18.3l2.8 4 7-17.1-19.6.4 3 4S1.896 9.328.196 22.928C-1.45 37.678 7.478 47.402 19.268 50.9l4.6-10.2c-3.3-.7-8.4-2.8-11.3-9.3"/><path d="M32.668 33.5c-1.7 1.7-4 2.7-6.4 2.8v-2.7c3.6-.2 6.4-3 6.6-6.6h2.6c-.1 2.5-1.1 4.7-2.8 6.5m-13.6 0c-1.7-1.7-2.7-4-2.8-6.4h2.7c.2 3.6 3 6.4 6.6 6.6v2.7c-2.5-.2-4.7-1.2-6.5-2.9m0-13.6c1.7-1.7 4-2.7 6.4-2.8v2.6c-3.5.2-6.4 3-6.6 6.6h-2.6c.1-2.4 1.1-4.7 2.8-6.4m9.9 6.4c-.2-1.4-1.3-2.5-2.7-2.7v-2.4c2.7.2 4.9 2.4 5.1 5.1zm-2.7 3.4c1.4-.2 2.5-1.3 2.7-2.7h2.4c-.2 2.7-2.4 4.9-5.1 5.1zm-3.4-2.7c.2 1.4 1.3 2.5 2.6 2.7v2.4c-2.7-.2-4.9-2.4-5.1-5.1zm2.7-3.3c-1.4.2-2.5 1.3-2.6 2.7h-2.4c.2-2.7 2.4-4.9 5.1-5.1zm7.1-3.8c1.7 1.7 2.7 4 2.8 6.4h-2.6c-.2-3.5-3-6.4-6.6-6.6v-2.6c2.4.1 4.7 1.1 6.4 2.8m5.3 6.4h-1c-.2-5.8-4.9-10.5-10.7-10.7v-1c0-.2-.2-.4-.4-.4s-.4.2-.4.4v1c-5.8.2-10.5 4.9-10.7 10.7h-1c-.2 0-.4.2-.4.4s.2.4.4.4h1c.2 5.8 4.9 10.6 10.7 10.7v1c0 .2.2.4.4.4s.4-.2.4-.4v-1c5.8-.2 10.5-4.9 10.7-10.7h1c.2 0 .4-.2.4-.4-.1-.2-.2-.4-.4-.4"/></svg>