<svg xmlns="http://www.w3.org/2000/svg" viewBox="0 0 165.3 62.4"><path fill="#fff" d="M0 18.7V.5h4.4v18.2H0ZM22 6.1c0 1.1-.2 2-.6 2.7s-.9 1.3-1.6 1.8-1.4.8-2.3 1c-.9.2-1.8.3-2.7.3h-2.2v6.9H8.2V.5h6.7c1 0 1.9 0 2.8.3.9.2 1.6.5 2.3 1 .6.4 1.1 1 1.5 1.7.4.7.6 1.6.6 2.6Zm-4.4 0c0-.4 0-.8-.3-1.1-.2-.3-.4-.5-.7-.6-.3-.2-.6-.3-1-.3h-3.1v4.3h1.9c.4 0 .8 0 1.2-.1.4 0 .7-.2 1-.4s.5-.4.7-.7.2-.6.2-1.1Zm14.7 12.6h-4.6L22.6 5.9h4.7l2.7 8.3 2.7-8.3h4.5l-5 12.8Zm18.3-3.5v3.6h-4v-3.6H38v-3.6L45.4.5h5.2v11.1h2.5v3.5h-2.5ZM46.6 5l-4.3 6.7h4.4V4.9Zm13.8 11.4c0 .7-.2 1.3-.8 1.8-.5.5-1.1.7-1.8.7s-.7 0-1-.2c-.3-.1-.6-.3-.8-.5-.2-.2-.4-.5-.6-.8s-.2-.6-.2-1 0-.7.2-1 .3-.6.6-.8c.2-.2.5-.4.8-.6.3-.1.6-.2 1-.2.7 0 1.3.2 1.8.7s.8 1.1.8 1.8Z"/><path fill="#1db0e6" d="M76.6 18.7c-1.2.3-2.5.4-3.9.4s-2.8-.2-4-.7-2.3-1.1-3.2-1.9c-.9-.8-1.6-1.9-2.1-3-.5-1.2-.7-2.5-.7-3.9s.2-2.8.8-4 1.2-2.2 2.1-3 1.9-1.5 3.1-1.9c1.2-.5 2.5-.7 3.9-.7s2.8.2 4 .6c1.2.4 2.2 1 3 1.8l-2.8 3.2c-.4-.5-1-.9-1.7-1.2-.7-.3-1.5-.5-2.4-.5s-1.5.1-2.1.4c-.6.3-1.2.7-1.7 1.2s-.8 1.1-1.1 1.8c-.3.7-.4 1.5-.4 2.3s.1 1.6.4 2.3c.2.7.6 1.3 1.1 1.8.5.5 1.1.9 1.7 1.2s1.5.4 2.4.4 1 0 1.5-.1.9-.2 1.3-.4v-3.4h-3.5V7.8h7.5v9.6c-.9.5-1.9.8-3.1 1.2Zm6.7 0V.5h4.4v14.4h7v3.8H83.2Zm31.8-9.2c0 1.4-.2 2.8-.7 4-.5 1.2-1.2 2.2-2.1 3.1-.9.8-1.9 1.5-3.2 2-1.2.5-2.5.7-4 .7s-2.8-.2-4-.7-2.3-1.1-3.1-2c-.9-.8-1.6-1.9-2.1-3.1-.5-1.2-.7-2.5-.7-4s.2-2.8.7-4c.5-1.2 1.2-2.2 2.1-3 .9-.8 1.9-1.5 3.1-1.9 1.2-.4 2.5-.7 3.9-.7s2.8.2 4 .7c1.2.4 2.3 1.1 3.2 1.9.9.8 1.6 1.8 2.1 3s.8 2.5.8 4Zm-4.7 0c0-.8-.1-1.5-.4-2.2-.3-.7-.6-1.3-1.1-1.8s-1-.9-1.7-1.2c-.6-.3-1.3-.4-2.1-.4s-1.5.1-2.1.4c-.6.3-1.2.7-1.7 1.2s-.8 1.1-1.1 1.8c-.2.7-.4 1.4-.4 2.2s.1 1.6.4 2.3c.3.7.6 1.3 1.1 1.8.4.5 1 .9 1.6 1.2.6.3 1.3.4 2.1.4s1.5-.1 2.1-.4c.6-.3 1.2-.7 1.7-1.2s.8-1.1 1.1-1.8c.3-.7.4-1.5.4-2.3Zm21.8 3.9c0 1-.2 1.8-.6 2.5-.4.7-.9 1.2-1.6 1.6s-1.4.7-2.2.9c-.8.2-1.7.3-2.5.3h-7.2V.5h7.2c.7 0 1.4 0 2.2.2s1.4.4 2 .7c.6.4 1.1.8 1.5 1.4s.6 1.4.6 2.3-.3 1.9-.8 2.5c-.6.7-1.3 1.1-2.2 1.4.5.2 1 .3 1.5.5s.8.5 1.2.9c.3.4.6.8.8 1.3s.3 1 .3 1.6Zm-5-7.6c0-.6-.2-1.1-.7-1.3-.5-.3-1.2-.4-2.1-.4h-2.1v3.8h2.4c.8 0 1.5-.2 1.9-.5.4-.4.7-.8.7-1.5Zm.6 7.2c0-.8-.3-1.3-.8-1.6-.6-.3-1.3-.4-2.3-.4h-2.5v4.2h3.6c.4 0 .7-.2 1-.3.3-.2.5-.4.7-.6.2-.3.3-.6.3-1.1Zm19.7 5.7-1.4-3.6h-7l-1.3 3.6H133L140.5.5h4.3l7.6 18.2h-4.9Zm-4.9-13.3-2.3 6.3h4.6l-2.3-6.3Zm11.2 13.3V.5h4.4v14.4h7v3.8h-11.5Z"/><path fill="none" stroke="#1db0e6" stroke-miterlimit="10" d="M0 24.6h165.3"/><path fill="#fff" d="M115.1 45.9h-.6v-.2h1.5v.2h-.6v1.6h-.3v-1.6Zm1.1-.2h.3l.6 1.6.6-1.6h.3v1.9h-.2v-1.5l-.6 1.5h-.2l-.6-1.5v1.5h-.2v-1.9Z"/><path fill="#1db0e6" d="M54.1 30.5c-5.2-2.3-11.2.1-13.5 5.3-1.1 2.5-1.1 5.2-.2 7.6C45 35.3 52 32 54.7 31h.2c-2.4 1.2-9 6-12.4 15.7.6.6 1.2 1.2 1.9 1.6 1.9-9.6 8-15.4 10.6-17.3 0 0 .1 0 .2.1-2.1 2.1-6.9 8.2-7.7 18.6.8.2 1.6.3 2.5.4-.5-9.4 3.5-16.4 5.2-18.9h.2c-1.3 2.5-3.8 9.2-2.4 18.4 2.8-.8 5.3-2.8 6.6-5.8 2.3-5.2-.1-11.2-5.3-13.5Z"/><path fill="#fff" d="M80.7 31.3v16.2h-3.1v-7H70v7h-3.1V31.3H70v6.6h7.6v-6.6h3.1Zm4.6 0v2.3h-2.7v-2.3h2.7Zm0 4.9v11.4h-2.7V36.2h2.7Zm4.6-4.9v16.2h-2.7V31.3h2.7Zm9 11.9h2.7v.4l-.2 1.7c-.3 1.6-2 2.4-4.9 2.4s-3.6-.4-4.3-1.2c-.7-.8-1.1-2.3-1.1-4.7s.4-3.8 1.1-4.6 2.1-1.2 4.1-1.2 3.3.3 4 .9c.7.6 1 1.7 1 3.3h-2.7c0-1.3-.8-2-2.3-2s-1.8.2-2.1.6-.4 1.4-.4 3.1.2 2.6.5 3 1.1.6 2.3.6 1.5-.1 1.8-.4c.3-.3.4-.9.4-1.9Zm8.9-7.2c2.2 0 3.6.4 4.3 1.1.7.7 1 2.2 1 4.4s-.3 4.2-1 5c-.7.8-2.1 1.2-4.2 1.2s-3.8-.4-4.5-1.1-1-2.3-1-4.8.3-3.9 1-4.7c.7-.7 2.2-1.1 4.4-1.1Zm0 2.2c-1.1 0-1.8.2-2.2.6s-.5 1.4-.5 2.9.2 2.8.4 3.2c.3.4 1 .6 2.2.6s1.8-.2 2.2-.7.5-1.5.5-3.3-.2-2.4-.5-2.8c-.3-.4-1.1-.6-2.2-.6ZM66.9 59.1h1.2c0 .4 0 .9.1 1.3 0 .5.4.7.8.8 1.2.2 2.4.2 3.7 0 .4 0 .7-.3.7-.7 0-.6.1-1.2 0-1.7 0-.7-.4-.9-1.1-1-.9 0-1.8-.1-2.7-.2-1.8 0-2.6-1-2.6-2.7 0-1.9.6-2.6 2.6-2.7h3.1c1.4.2 2.1 1.2 1.8 2.7h-1.2c0-.3 0-.7-.1-1 0-.4-.4-.8-.8-.8h-3.3c-.5 0-.8.4-.9.9v.1c-.2 1.6.1 2.1 1.8 2.2 1 0 2.1.1 3.1.3 1.2.2 1.5.5 1.7 1.8v2.1c0 .8-.6 1.3-1.4 1.4-1.1.1-2.2.2-3.3.2-.5 0-1 0-1.5-.2-.8-.1-1.2-.6-1.4-1.4 0-.5-.1-1.1-.2-1.6Zm41.5 3.1h-1.2v-4.9c0-.9-.5-1.3-1.3-1.4-.8 0-1.6.2-2.1.9-.2.4-.3.9-.3 1.3v4.1h-1v-7h1v.9c.6-.8 1.4-1.1 2.4-1.1.9 0 1.8.2 2.3 1.1.8-1.1 2-1.2 3.2-1.1.9.1 1.7.8 1.7 1.7v5.4h-1v-5.3c0-.6-.3-.9-.9-1h-1.7c-.7.1-1 .6-1 1.4v4.7Zm6.9-10.1h1v3.8c1.1-1.1 2.4-1 3.7-.7.6.1 1.1.6 1.2 1.2.4 1.4.4 2.9 0 4.3-.2.8-.7 1.3-1.5 1.4-.7 0-1.4.1-2.1 0-.5 0-.9-.4-1.3-.6v.5h-1V51.9Zm5.1 6.5c0-.5-.1-1.1-.2-1.7 0-.5-.4-.8-.8-.9-.5 0-1.1-.1-1.7 0-.7 0-1.2.5-1.2 1.2v3.2c0 .5.4.8.9.9.6 0 1.1.1 1.7 0 .7 0 1-.4 1.1-1.1 0-.5 0-1 .2-1.6ZM92 60.1h1.1c.3.9-.2 1.8-1.1 2-.8.2-1.6.2-2.5.2-.4 0-.7 0-1.1-.1-.8-.2-1.3-.6-1.4-1.4-.3-1.4-.3-2.7 0-4.1.2-1 .9-1.5 1.8-1.6h2.5c1 0 1.7.6 1.8 1.8 0 .6 0 1.3.1 2h-5.4c.1.7.2 1.3.3 1.9 0 .2.4.5.7.5.7 0 1.5.1 2.3 0 .7 0 .9-.3.9-1V60Zm0-2v-1c-.1-.7-.3-1-1-1.1h-2.1c-.2 0-.6.3-.6.5-.2.4-.2.9-.3 1.4h4.1Zm3.8-.9h-1c-.1-1.2.3-1.8 1.4-2H99c1.1.1 1.6.7 1.6 1.8v5.2h-1.1v-.6c-1.1.9-2.4.8-3.6.6-.9-.2-1.4-.7-1.5-1.6v-1.3c.1-.6.5-1 1.1-1.2 1-.2 2-.3 3 0 .3 0 .6.2.9.4 0-.6 0-1.3-.2-2 0-.2-.4-.4-.6-.5-.8-.2-1.6-.2-2.4.1-.4.2-.5.6-.5 1Zm1.8 1.6h-.8c-1 0-1.4.5-1.2 1.5 0 .2 0 .3.1.4.1.2.3.5.5.6 1 .3 1.9.3 2.9-.1.5-.2.7-.7.6-1.4 0-.5-.3-.8-.9-.9-.4 0-1.1-.1-1.1-.1Zm31.3 3.4h-1v-.6c-.9.8-1.9.8-3 .7-1.7-.2-2.4-1.2-2.1-2.8.1-.8.6-1.3 1.4-1.4h2.7c.3 0 .6.3 1 .4 0-.6 0-1.2-.2-1.8 0-.4-.3-.7-.7-.7h-2c-.6 0-.8.4-.9 1.1h-1c-.2-.9.2-1.7 1.1-1.9 1.1-.3 2.2-.2 3.4 0 .8.2 1.2.7 1.3 1.5v5.5Zm-3.1-3.4h-1.1c-.4 0-.7.3-.7.7v1.1c0 .4.3.6.7.6h2.1c.2 0 .4-.1.6-.2.5-.3.7-.7.6-1.3 0-.6-.3-.9-.9-1h-1.2Zm14-6.6v5.9c.3-.1.5-.2.6-.3.7-.7 1.4-1.4 2-2.2.3-.3.2-.4 1-.4h.8l-3 3.2 3.6 3.8h-1.3c-.1 0-.3-.1-.4-.2-.5-.5-.9-1.1-1.4-1.6-.4-.5-.9-1-1.3-1.4-.1-.1-.3-.1-.5-.2v3.4h-1v-10h1Zm-3 10h-1v-5.4c0-.4-.3-.7-.7-.7h-1.9c-.8.2-1.2.9-1.2 1.9v4.2h-1v-7h1v.7c1-1 2.3-.9 3.4-.8 1.1.1 1.5.7 1.6 1.8v5.2Zm-60.9-6.1h-1v-.9h1v-1.7H77v1.7h2.8v.9H77v4.2c0 .9.4 1.3 1.3 1.2.4 0 .7-.3.8-.8v-.9h1c0 .5 0 1-.2 1.4-.1.5-.5.9-1 1.1-.7.2-1.3.2-2 0-.6-.2-1-.7-1-1.5v-4.6Zm6.2 6.1H81v-7h1.1v.7c.1-.2.3-.4.5-.5.9-.5 1.8-.5 2.7-.1.5.2.7.8.8 1.3v.9H85v-.8c-.1-.3-.3-.6-.6-.7-.9-.4-2 .2-2.2 1.2v5ZM21 35.5h3.8c1.1 0 1.4 0 1.8.3.6.3.8.9.8 2.1s-.3 1.5-1.1 1.8c1 .3 1.4.8 1.4 2.1s-.3 1.8-.8 2.1c-.3.2-.9.3-1.6.3h-4.2v-8.7Zm3.5 3.8c.8 0 1.1 0 1.4-.2.4-.2.5-.5.5-1.4s-.1-1.1-.5-1.3c-.2-.1-.4-.1-1.1-.1H22v3h2.6Zm-.5 4c1.4 0 1.8 0 2.1-.2.4-.2.5-.5.5-1.3s-.1-1.2-.5-1.4c-.3-.2-.4-.2-1.8-.2h-2.5v3.2h2.1Zm7.8 1.3c-.2.7-.4 1.3-.6 1.6-.3.5-.8.8-1.5.8h-.4v-.7h.3c.7 0 .9-.3 1.3-2h-.3l-2.2-6.1h.9l.9 2.7.5 1.4.2.7.2.7.2-.7.2-.7.3-1.4.7-2.7h.9l-1.7 6.4ZM147 60.5h-.6v-.2h1.5v.2h-.6v1.6h-.3v-1.6Zm1.1-.2h.3l.6 1.6.6-1.6h.3v1.9h-.2v-1.5l-.6 1.5h-.2l-.6-1.5v1.5h-.2v-1.9Z"/></svg>