<svg xmlns="http://www.w3.org/2000/svg" viewBox="0 0 70 70"><g fill="#efefef"><path d="m38.573 20.703-2.37 6.26s6.882.733 7.22 7.953c0 0 .395 7.332-7.896 8.573l-2.538 5.978c.677.113 1.41.17 2.143.17 9.194 0 14.495-7.502 14.495-15.172 0-7.727-6.373-12.747-11.054-13.762M27.462 38.074s-2.538-6.542 4.004-10.321l1.58 2.256 3.948-9.645-11.055.226 1.692 2.256s-6.188 2.78-7.147 10.45c-.928 8.32 4.107 13.803 10.757 15.776l2.594-5.753c-1.861-.394-4.738-1.579-6.373-5.245"/><path d="M38.798 39.259a5.438 5.438 0 0 1-3.61 1.579v-1.523a3.915 3.915 0 0 0 3.723-3.722h1.467c-.057 1.41-.62 2.65-1.58 3.666m-7.67 0a5.438 5.438 0 0 1-1.58-3.61h1.523a3.915 3.915 0 0 0 3.723 3.722v1.523a5.93 5.93 0 0 1-3.666-1.635m0-7.67a5.438 5.438 0 0 1 3.61-1.58v1.466a3.958 3.958 0 0 0-3.723 3.723H29.55a5.438 5.438 0 0 1 1.579-3.61m5.584 3.61a1.795 1.795 0 0 0-1.523-1.523V32.32a3.14 3.14 0 0 1 2.876 2.877zm-1.523 1.917a1.795 1.795 0 0 0 1.523-1.522h1.353a3.14 3.14 0 0 1-2.876 2.876zm-1.918-1.522c.113.79.733 1.41 1.467 1.522v1.354a3.14 3.14 0 0 1-2.877-2.876zm1.523-1.862c-.79.113-1.41.734-1.467 1.523h-1.353a3.14 3.14 0 0 1 2.876-2.876zm4.004-2.143a5.438 5.438 0 0 1 1.58 3.61H38.91a3.958 3.958 0 0 0-3.722-3.723V30.01c1.353.056 2.65.62 3.61 1.58m2.989 3.609h-.564c-.113-3.272-2.764-5.922-6.035-6.035V28.6c0-.113-.113-.226-.226-.226s-.225.113-.225.226v.564c-3.272.113-5.923 2.763-6.035 6.035h-.564c-.113 0-.226.113-.226.225s.113.226.226.226h.564c.112 3.271 2.763 5.978 6.035 6.035v.564c0 .113.112.225.225.225s.226-.112.226-.225v-.564c3.271-.113 5.922-2.764 6.035-6.035h.564a.243.243 0 0 0 .225-.226c-.056-.112-.113-.225-.225-.225"/></g></svg>