<svg version="1.1" viewBox="0 0 862.6 453.9" xmlns="http://www.w3.org/2000/svg"><rect width="862.6" height="453.9" fill="#fff" stroke="#11384d" stroke-width="2.8346"/><g fill="#e0162b"><path d="M0 0h862.6v34.9H0zM0 69.8h862.6v34.9H0zM0 139.6h862.6v34.9H0zM0 209.5h862.6v34.9H0zM0 279.3h862.6v34.9H0zM0 349.2h862.6v34.9H0zM0 419h862.6v34.9H0z"/></g><path d="M0 0h345v244.4H0z" fill="#0052a5"/><path d="m324.5 35.7-8.2-6-8.3 6 3.2-9.6-8.2-6h10.1l3.2-9.7 3.1 9.7h10.2l-8.3 6zm0 48.9-8.2-6-8.3 6 3.2-9.6-8.2-6h10.1l3.2-9.7 3.1 9.7h10.2l-8.3 6zm0 48.9-8.2-6-8.3 6 3.2-9.6-8.2-6h10.1l3.2-9.7 3.1 9.7h10.2l-8.3 6zm0 48.9-8.2-6-8.3 6 3.2-9.7-8.2-5.9h10.1l3.2-9.7 3.1 9.7h10.2l-8.3 5.9zm0 48.9-8.2-6-8.3 6 3.2-9.7-8.2-5.9h10.1l3.2-9.7 3.1 9.7h10.2l-8.3 5.9zm-28.8-171.1-8.2-6-8.2 6 3.1-9.7-8.2-6h10.2l3.1-9.6 3.2 9.6h10.1l-8.2 6zm0 48.9-8.2-6-8.2 6 3.1-9.7-8.2-6h10.2l3.1-9.6 3.2 9.6h10.1l-8.2 6zm0 48.9-8.2-6-8.2 6 3.1-9.7-8.2-6h10.2l3.1-9.6 3.2 9.6h10.1l-8.2 6zm0 48.8-8.2-5.9-8.2 5.9 3.1-9.6-8.2-6h10.2l3.1-9.7 3.2 9.7h10.1l-8.2 6zm-28.7-171.1-8.2-6-8.3 6 3.2-9.6-8.2-6h10.1l3.2-9.7 3.1 9.7h10.2l-8.3 6zm0 48.9-8.2-6-8.3 6 3.2-9.6-8.2-6h10.1l3.2-9.7 3.1 9.7h10.2l-8.3 6zm0 48.9-8.2-6-8.3 6 3.2-9.6-8.2-6h10.1l3.2-9.7 3.1 9.7h10.2l-8.3 6zm0 48.9-8.2-6-8.3 6 3.2-9.7-8.2-5.9h10.1l3.2-9.7 3.1 9.7h10.2l-8.3 5.9zm0 48.9-8.2-6-8.3 6 3.2-9.7-8.2-5.9h10.1l3.2-9.7 3.1 9.7h10.2l-8.3 5.9zm-28.8-171.1-8.2-6-8.2 6 3.1-9.7-8.2-6h10.2l3.1-9.6 3.1 9.6h10.2l-8.2 6zm0 48.9-8.2-6-8.2 6 3.1-9.7-8.2-6h10.2l3.1-9.6 3.1 9.6h10.2l-8.2 6zm0 48.9-8.2-6-8.2 6 3.1-9.7-8.2-6h10.2l3.1-9.6 3.1 9.6h10.2l-8.2 6zm0 48.8-8.2-5.9-8.2 5.9 3.1-9.6-8.2-6h10.2l3.1-9.7 3.1 9.7h10.2l-8.2 6zm-28.7-171.1-8.3-6-8.2 6 3.2-9.6-8.3-6h10.2l3.1-9.7 3.2 9.7h10.1l-8.2 6zm0 48.9-8.3-6-8.2 6 3.2-9.6-8.3-6h10.2l3.1-9.7 3.2 9.7h10.1l-8.2 6zm0 48.9-8.3-6-8.2 6 3.2-9.6-8.3-6h10.2l3.1-9.7 3.2 9.7h10.1l-8.2 6zm0 48.9-8.3-6-8.2 6 3.2-9.7-8.3-5.9h10.2l3.1-9.7 3.2 9.7h10.1l-8.2 5.9zm0 48.9-8.3-6-8.2 6 3.2-9.7-8.3-5.9h10.2l3.1-9.7 3.2 9.7h10.1l-8.2 5.9zm-28.8-171.1-8.2-6-8.2 6 3.1-9.7-8.2-6h10.2l3.1-9.6 3.1 9.6h10.2l-8.2 6zm0 48.9-8.2-6-8.2 6 3.1-9.7-8.2-6h10.2l3.1-9.6 3.1 9.6h10.2l-8.2 6zm0 48.9-8.2-6-8.2 6 3.1-9.7-8.2-6h10.2l3.1-9.6 3.1 9.6h10.2l-8.2 6zm0 48.8-8.2-5.9-8.2 5.9 3.1-9.6-8.2-6h10.2l3.1-9.7 3.1 9.7h10.2l-8.2 6zm-28.7-171.1-8.3-6-8.2 6 3.2-9.6-8.3-6h10.2l3.1-9.7 3.2 9.7h10.1l-8.2 6zm0 48.9-8.3-6-8.2 6 3.2-9.6-8.3-6h10.2l3.1-9.7 3.2 9.7h10.1l-8.2 6zm0 48.9-8.3-6-8.2 6 3.2-9.6-8.3-6h10.2l3.1-9.7 3.2 9.7h10.1l-8.2 6zm0 48.9-8.3-6-8.2 6 3.2-9.7-8.3-5.9h10.2l3.1-9.7 3.2 9.7h10.1l-8.2 5.9zm0 48.9-8.3-6-8.2 6 3.2-9.7-8.3-5.9h10.2l3.1-9.7 3.2 9.7h10.1l-8.2 5.9zm-28.8-171.1-8.2-6-8.2 6 3.1-9.7-8.2-6h10.2l3.1-9.6 3.1 9.6h10.2l-8.2 6zm0 48.9-8.2-6-8.2 6 3.1-9.7-8.2-6h10.2l3.1-9.6 3.1 9.6h10.2l-8.2 6zm0 48.9-8.2-6-8.2 6 3.1-9.7-8.2-6h10.2l3.1-9.6 3.1 9.6h10.2l-8.2 6zm0 48.8-8.2-5.9-8.2 5.9 3.1-9.6-8.2-6h10.2l3.1-9.7 3.1 9.7h10.2l-8.2 6zm-28.7-171.1-8.3-6-8.2 6 3.2-9.6-8.3-6h10.2l3.1-9.7 3.2 9.7h10.1l-8.2 6zm0 48.9-8.3-6-8.2 6 3.2-9.6-8.3-6h10.2l3.1-9.7 3.2 9.7h10.1l-8.2 6zm0 48.9-8.3-6-8.2 6 3.2-9.6-8.3-6h10.2l3.1-9.7 3.2 9.7h10.1l-8.2 6zm0 48.9-8.3-6-8.2 6 3.2-9.7-8.3-5.9h10.2l3.1-9.7 3.2 9.7h10.1l-8.2 5.9zm0 48.9-8.3-6-8.2 6 3.2-9.7-8.3-5.9h10.2l3.1-9.7 3.2 9.7h10.1l-8.2 5.9zm-28.8-171.1-8.2-6-8.2 6 3.1-9.7-8.2-6h10.1l3.2-9.6 3.1 9.6h10.2l-8.2 6zm0 48.9-8.2-6-8.2 6 3.1-9.7-8.2-6h10.1l3.2-9.6 3.1 9.6h10.2l-8.2 6zm0 48.9-8.2-6-8.2 6 3.1-9.7-8.2-6h10.1l3.2-9.6 3.1 9.6h10.2l-8.2 6zm0 48.8-8.2-5.9-8.2 5.9 3.1-9.6-8.2-6h10.1l3.2-9.7 3.1 9.7h10.2l-8.2 6zm-28.8-171.1-8.2-6-8.2 6 3.2-9.6-8.3-6h10.2l3.1-9.7 3.2 9.7h10.1l-8.2 6zm0 48.9-8.2-6-8.2 6 3.2-9.6-8.3-6h10.2l3.1-9.7 3.2 9.7h10.1l-8.2 6zm0 48.9-8.2-6-8.2 6 3.2-9.6-8.3-6h10.2l3.1-9.7 3.2 9.7h10.1l-8.2 6zm0 48.9-8.2-6-8.2 6 3.2-9.7-8.3-5.9h10.2l3.1-9.7 3.2 9.7h10.1l-8.2 5.9zm0 48.9-8.2-6-8.2 6 3.2-9.7-8.3-5.9h10.2l3.1-9.7 3.2 9.7h10.1l-8.2 5.9z" fill="#fff"/></svg>
