<?xml version="1.0" encoding="utf-8"?>
<!-- Generator: Adobe Illustrator 25.2.1, SVG Export Plug-In . SVG Version: 6.00 Build 0)  -->
<svg version="1.1" id="Layer_1" xmlns="http://www.w3.org/2000/svg" xmlns:xlink="http://www.w3.org/1999/xlink" x="0px" y="0px"
	 viewBox="0 0 160 173" style="enable-background:new 0 0 160 173;" xml:space="preserve">
<style type="text/css">
	.st0{fill:#fff;}
	.st1{fill:#5C5C5C;}
</style>
<rect class="st0" width="159.3" height="173"/>
<g id="Group_6" transform="translate(-180.954 -84.206)">
	<path id="Path_18" class="st1" d="M323.1,167.2h-24.6l-4.5-11l17.6-17.2C317.4,144.2,323.2,157.9,323.1,167.2z"/>
	<path id="Path_19" class="st1" d="M223.5,144.6l16.9,16.7l-4.6,11.1h-23.5C211.4,164.7,217.4,150.1,223.5,144.6z"/>
	<path id="Path_20" class="st1" d="M298.2,208l-17.3-17.2l4.5-10.7h24.3C309,190.3,305,200.1,298.2,208z"/>
	<path id="Path_21" class="st1" d="M264.7,225.2v-24.3l10.6-4.5l17.1,17.3C284.7,220.4,275,224.4,264.7,225.2z"/>
	<path id="Path_22" class="st1" d="M211.9,179.9h24l4.4,10.6l-17.1,17.1C216.5,199.8,212.6,190.1,211.9,179.9z"/>
	<path id="Path_23" class="st1" d="M292.6,138.6c-5.5,5.7-10.8,11.2-16.3,16.6c-0.6,0.4-1.3,0.5-2,0.3c-3.2-1.4-6.2-2.9-9.6-4.5
		v-23.9C275,127.9,284.7,131.9,292.6,138.6z"/>
	<path id="Path_24" class="st1" d="M228.9,138.8c7.9-6.8,17.7-10.9,28-11.7c0.1,1,0.2,1.8,0.2,2.7c0,6.5,0,13,0,19.5
		c0,1.6-0.4,2.5-2.1,3c-2.5,0.8-4.9,2-7.4,2.9c-0.9,0.3-1.9,0.3-2.7-0.2C239.6,149.7,234.4,144.3,228.9,138.8z"/>
	<path id="Path_25" class="st1" d="M246.5,196.7c2.8,1.1,5.8,2.2,8.8,3.5c0.7,0.3,1.7,1,1.7,1.5c0.1,7.8,0.1,15.5,0.1,23.4
		c-10.2-0.7-19.9-4.6-27.6-11.3L246.5,196.7z"/>
	<path id="Path_26" class="st1" d="M181.2,171h22.9v10.1h-22.9V171z"/>
	<path id="Path_27" class="st1" d="M317.4,171h22.9v10.1h-22.9V171z"/>
	<path id="Path_28" class="st1" d="M255.9,96.6h9.9v23h-9.9V96.6z"/>
	<path id="Path_29" class="st1" d="M255.9,233.4h9.9v23h-9.9V233.4z"/>
	<path id="Path_30" class="st1" d="M265.3,176.4c-0.2,2.5-2.3,4.4-4.8,4.2c-2.5-0.2-4.3-2.4-4.2-4.9c0.3-2.5,2.4-4.3,4.9-4.3
		C263.6,171.8,265.5,173.9,265.3,176.4z"/>
</g>
</svg>
