<?xml version="1.0" encoding="utf-8"?>
<!-- Generator: Adobe Illustrator 25.2.1, SVG Export Plug-In . SVG Version: 6.00 Build 0)  -->
<svg version="1.1" id="Layer_2" xmlns="http://www.w3.org/2000/svg" xmlns:xlink="http://www.w3.org/1999/xlink" x="0px" y="0px"
	 viewBox="0 0 160 173" style="enable-background:new 0 0 160 173;" xml:space="preserve">
<style type="text/css">
	.st0{fill:#fff;}
	.st1{fill:#5C5C5C;}
</style>
<rect class="st0" width="159.3" height="173"/>
<path id="Path_1" class="st1" d="M61.1,30.7c7.9-2.1,15.8-3.5,23.9-2.4c3.8,0.5,7.6,1.2,11.4,1.9c1.5,0.3,2.1,0.8,2,2.7
	c-0.5,5.8,2.5,11.3,7.5,14c5.4,3.2,11,2.9,16.3-0.5c1.1-0.7,1.7-0.9,2.7,0.1c8.4,8.2,14.4,18.6,17.3,30c0.4,1.4-0.4,1.7-1.3,2.2
	c-9.7,5.2-11.6,17.5-3.7,25c1.2,1.1,2.8,1.8,4,2.8c0.6,0.5,0.9,1.2,1,1.9c-2.8,11.5-8.9,21.9-17.4,30.1c-0.6,0.4-1.4,0.5-2.1,0.3
	c-5.4-3.5-11.1-4-16.7-0.7c-5.5,3.3-8,8.4-7.7,14.9c-0.1,0.7-0.7,1.3-1.3,1.6c-6.8,2-14,2.8-21.1,2.3c-4.2-0.4-8.3-1.3-12.5-2
	c-0.8-0.2-1.7-0.5-2.5-0.8c0.6-5.6-0.8-10.4-4.9-14.1c-5.2-4.9-13-5.4-18.9-1.4c-1.3,0.9-1.9,0.7-2.8-0.3
	c-8.1-8.1-14-18.2-16.9-29.2c-0.4-1.6-0.1-2.2,1.3-2.9c7.5-3.8,10.6-12.9,6.8-20.5c-0.9-1.7-2-3.2-3.4-4.5c-1.1-1.1-2.7-1.7-3.9-2.7
	c-0.6-0.5-0.9-1.1-0.9-1.9c2.8-11.4,8.8-21.8,17.2-30c0.7-0.7,1.2-1.2,2.3-0.4c5.3,3.7,11,4.1,16.6,0.8c5.7-3.4,8.2-8.6,7.6-15.3
	C61,31.3,61,31,61.1,30.7z M79.8,69.5c6.8,0.1,12.4-5.4,12.5-12.2c0-0.1,0-0.3,0-0.4c0-6.9-5.7-12.5-12.6-12.5
	c-6.9,0-12.5,5.7-12.5,12.6C67.2,64,72.8,69.5,79.8,69.5z M92.3,128.1c0-6.9-5.7-12.5-12.6-12.5c-6.9,0-12.5,5.7-12.5,12.6
	c0,6.9,5.6,12.5,12.5,12.5c6.9,0,12.5-5.5,12.6-12.4C92.3,128.2,92.3,128.1,92.3,128.1z M36.4,110c0,7.1,5.6,13,12.4,13
	c6.9-0.1,12.5-5.6,12.7-12.5c0.1-6.9-5.4-12.7-12.3-12.8C42.3,97.5,36.6,103,36.4,110L36.4,110z M49.3,87.3
	c7.3-0.2,12.5-5.8,12.3-13.3c-0.2-6.5-6.4-12.2-13.1-12c-6.9,0.2-12.2,6.3-12,13.6C36.6,82.1,42.6,87.5,49.3,87.3L49.3,87.3z
	 M110.5,87.3c6.8,0.1,12.4-5.4,12.5-12.2c0-0.1,0-0.2,0-0.3c0-6.9-5.6-12.6-12.5-12.6c-6.9,0-12.6,5.6-12.6,12.5
	c-0.1,6.9,5.5,12.6,12.4,12.6C110.3,87.3,110.4,87.3,110.5,87.3L110.5,87.3z M123,110.2c0-6.9-5.7-12.6-12.6-12.5
	c-6.8,0-12.4,5.5-12.5,12.3c0,7.1,5.6,12.9,12.7,13C117.3,123,123,117.1,123,110.2L123,110.2z M92.3,92.5c0-6.9-5.6-12.5-12.5-12.5
	s-12.5,5.6-12.5,12.5c0,6.9,5.6,12.5,12.5,12.5C86.6,105.1,92.2,99.5,92.3,92.5C92.3,92.6,92.3,92.6,92.3,92.5z"/>
</svg>
