<?xml version="1.0" encoding="utf-8"?>
<!-- Generator: Adobe Illustrator 26.3.1, SVG Export Plug-In . SVG Version: 6.00 Build 0)  -->
<svg version="1.1" id="Layer_1" xmlns="http://www.w3.org/2000/svg" xmlns:xlink="http://www.w3.org/1999/xlink" x="0px" y="0px"
	 viewBox="0 0 240 240" style="enable-background:new 0 0 240 240;" xml:space="preserve">
<style type="text/css">
	.st0{fill:#1DB0E6;}
	.st1{fill:#003E72;}
</style>
<path class="st0" d="M158.1,222.5c-15.1,0-30.2-2.2-43.1-7.5c-12.9-5.4-24.8-11.8-34.5-20.5c-9.7-8.6-17.2-20.5-22.6-32.3
	c-5.4-12.9-7.5-26.9-7.5-42S52.6,90,59,77.1C65.5,64.1,72,53.4,81.6,44.8s20.5-16.2,33.4-20.5c12.9-5.4,26.9-7.5,42-7.5
	c15.1,0,30.2,2.2,43.1,6.5s23.7,10.8,32.3,19.4l-30.2,34.5c-4.3-5.4-10.8-9.7-18.3-12.9s-16.2-5.4-25.9-5.4s-16.2,1.1-22.6,4.3
	c-6.5,3.2-12.9,7.5-18.3,12.9s-8.6,11.8-11.8,19.4c-3.2,7.5-4.3,16.2-4.3,24.8s1.1,17.2,4.3,24.8c2.2,7.5,6.5,14,11.8,19.4
	c5.4,5.4,11.8,9.7,18.3,12.9s16.2,4.3,25.9,4.3s10.8,0,16.2-1.1c5.4-1.1,9.7-2.2,14-4.3v-36.6h-37.7v-38.8h80.8v103.4
	c-9.7,5.4-20.5,8.6-33.4,12.9C201.2,217.1,173.2,222.5,158.1,222.5z"/>
<circle class="st1" cx="31.3" cy="185.7" r="27.8"/>
</svg>
